<svg width="152" height="43" viewBox="0 0 152 43" fill="none" xmlns="http://www.w3.org/2000/svg">
<g clip-path="url(#clip0_646_260)">
<path d="M31.2199 29.0332H36.1993V28.1146L32.8726 20.9361L35.8018 14.9968V14.0781H31.4082L28.7091 19.6543H27.3701V14.0781H22.3906V29.0332H27.3701V23.2648H28.6045L31.2199 29.0332Z" fill="black"/>
<path d="M38.1523 29.0332H43.132V23.9699H43.9898C48.2787 23.9699 50.3919 22.3889 50.3919 19.0561C50.3919 15.6805 48.5299 14.0781 44.2199 14.0781H38.1523V29.0332ZM43.0691 17.3042H43.9061C45.1614 17.3042 45.5588 17.9024 45.5588 19.0774C45.5588 20.2311 45.1403 21.0002 43.9061 21.0002H43.0691V17.3042Z" fill="black"/>
<path d="M52.2383 29.0332H63.0969V25.7004H57.1969V23.0939H61.1094V19.8893H57.1969V17.4964H62.9086V14.0781H52.2383V29.0332Z" fill="black"/>
<path d="M70.2648 29.0332V17.6674H73.4239V29.0332H78.4036V14.0781H65.2852V29.0332H70.2648Z" fill="black"/>
<path d="M80.3398 24.6331H85.8842V21.2148H80.3398V24.6331Z" fill="black"/>
<path d="M96.6691 29.0332H101.649V28.1146L98.3221 20.9361L101.251 14.9968V14.0781H96.8575L94.1584 19.6543H92.8195V14.0781H87.8398V29.0332H92.8195V23.2648H94.054L96.6691 29.0332Z" fill="black"/>
<path d="M109.794 29.2689C114.062 29.2689 117.284 26.5556 117.284 21.599C117.284 16.6425 113.957 13.8438 109.794 13.8438C105.651 13.8438 102.324 16.6425 102.324 21.599C102.324 26.5556 105.525 29.2689 109.794 29.2689ZM109.794 25.8292C108.329 25.8292 107.346 24.6114 107.346 21.6204C107.346 18.6294 108.329 17.4116 109.794 17.4116C111.258 17.4116 112.241 18.6294 112.241 21.6204C112.241 24.6114 111.258 25.8292 109.794 25.8292Z" fill="black"/>
<path d="M119.242 29.0332H123.175V19.7611H123.238L125.958 29.0332H128.72L131.461 19.7611H131.524V29.0332H136.336V14.0781H130.038L127.841 21.5984H127.778L125.581 14.0781H119.242V29.0332Z" fill="black"/>
<path d="M143.847 29.0332V17.6674H147.006V29.0332H151.985V14.0781H138.867V29.0332H143.847Z" fill="black"/>
<path d="M23.2388 0.852322C22.1259 -0.284108 20.3215 -0.284107 19.2086 0.852322L1.01046 19.435C-0.102447 20.5715 -0.102445 22.414 1.01046 23.5504L19.2086 42.1332C20.3215 43.2695 22.1259 43.2695 23.2388 42.1332L28.6821 36.5747C29.4001 35.8414 28.8916 34.5876 27.8761 34.5876H21.3145C19.7937 34.5876 18.3873 33.7624 17.6214 32.4208L12.6325 23.6811C11.857 22.3226 11.857 20.6432 12.6325 19.2847L17.6214 10.545C18.3873 9.20327 19.7937 8.37814 21.3145 8.37814H27.8568C28.8723 8.37814 29.3811 7.12436 28.6629 6.39107L23.2388 0.852322Z" fill="#552FEC"/>
</g>
<defs>
<clipPath id="clip0_646_260">
<rect width="152" height="43" fill="white"/>
</clipPath>
</defs>
</svg>
