<svg width="25" height="16" viewBox="0 0 25 16" fill="none" xmlns="http://www.w3.org/2000/svg">
<g id="payment_mastercard" clip-path="url(#clip0_649_1859)">
<g id="Group">
<path id="Vector" d="M16.0121 13.6636H9.48438V2.33984H15.9641L16.0121 13.6636Z" fill="#CCCCCC"/>
<path id="Vector_2" d="M9.9176 8.02376C9.9176 5.74037 11.0215 3.68997 12.7495 2.38518C11.4535 1.35998 9.8216 0.800781 8.18967 0.800781C4.06185 0.800781 0.75 4.01617 0.75 8.02376C0.75 12.0314 4.06185 15.2467 8.18967 15.2467C9.8696 15.2467 11.4535 14.6876 12.7495 13.709C11.0215 12.3576 9.9176 10.3072 9.9176 8.02376Z" fill="#F0F0F0"/>
<path id="Vector_3" d="M24.7506 8.02376C24.7506 11.9848 21.4387 15.2467 17.3109 15.2467C15.631 15.2467 14.0471 14.6876 12.7031 13.709C14.431 12.4042 15.535 10.3538 15.535 8.07037C15.535 5.78697 14.479 3.64337 12.7511 2.33858C14.0471 1.35998 15.679 0.800781 17.3109 0.800781C21.4387 0.800781 24.7506 4.01617 24.7506 8.02376Z" fill="#E5E5E5"/>
</g>
</g>
<defs>
<clipPath id="clip0_649_1859">
<rect width="23.9989" height="14.3994" fill="white" transform="translate(0.75 0.800781)"/>
</clipPath>
</defs>
</svg>
