<svg width="47" height="15" viewBox="0 0 47 15" fill="none" xmlns="http://www.w3.org/2000/svg">
<g id="payment_mir" clip-path="url(#clip0_649_1864)">
<g id="Group">
<path id="Vector" d="M25.974 2.19144L23.025 8.67286H22.7486V0.761719H18.6016V14.2011H22.1035C23.025 14.2011 23.8545 13.6292 24.2231 12.7714L27.1721 6.28999H27.4485V14.2011H31.6877V0.761719H28.1858C27.2642 0.761719 26.4348 1.33361 25.974 2.19144Z" fill="#F0F0F0"/>
<path id="Vector_2" d="M10.4887 2.5727L8.73776 8.67286H8.46129L6.71032 2.5727C6.43386 1.52424 5.5123 0.761719 4.49858 0.761719H0.351562V14.2011H4.49858V6.28999H4.77505L7.1711 14.2011H10.1201L12.5161 6.28999H12.7926V14.2011H16.9396V0.761719H12.7926C11.6867 0.761719 10.7652 1.52424 10.4887 2.5727Z" fill="#F0F0F0"/>
<path id="Vector_3" d="M33.4375 6.86328V14.2025H37.5845V9.91336H42.008C43.9433 9.91336 45.6021 8.67427 46.155 6.86328H33.4375V6.86328Z" fill="#F0F0F0"/>
<path id="Vector_4" d="M42.0063 0.761719H32.8828C33.4357 3.90711 36.1083 6.28999 39.2416 6.28999H46.3376C46.4297 6.00404 46.4297 5.62278 46.4297 5.33684C46.4297 2.85865 44.4023 0.761719 42.0063 0.761719Z" fill="#F0F0F0"/>
</g>
</g>
<defs>
<clipPath id="clip0_649_1864">
<rect width="46.078" height="13.4394" fill="white" transform="translate(0.351562 0.761719)"/>
</clipPath>
</defs>
</svg>
