<svg width="85" height="24" viewBox="0 0 85 24" fill="none" xmlns="http://www.w3.org/2000/svg">
<g id="payment_tinkoff" clip-path="url(#clip0_649_1850)">
<path id="Vector" d="M15.3283 13.5189L15.8019 12.7973H15.9034V18.1915H18.3054V9.03516H15.9034L13.1969 13.2096L12.7402 13.914L12.3004 14.6183H12.1989V9.03516H9.79688V18.1915H12.1989C12.6556 17.5559 13.0954 16.9031 13.5352 16.2331L14.8377 14.2575C15.0168 14.0224 15.1806 13.7756 15.3283 13.5189" fill="#F0F0F0"/>
<path id="Vector_2" d="M23.0127 14.395H26.5988V18.1915H29.0008V9.03516H26.5988V12.5225H23.0127V9.03516H20.5938V18.1915H23.0127V14.395Z" fill="#F0F0F0"/>
<path id="Vector_3" d="M38.9271 15.2539C38.9477 14.8387 38.8711 14.4245 38.7035 14.0452C38.5359 13.666 38.2821 13.3325 37.9629 13.0722C37.2174 12.525 36.3104 12.2523 35.3917 12.2991H33.7002V9.03516H31.2812V18.1915H35.544C36.4272 18.2469 37.3031 17.9988 38.0306 17.4872C38.348 17.2174 38.5957 16.8729 38.752 16.4836C38.9082 16.0944 38.9684 15.6722 38.9271 15.2539ZM36.1529 16.0957C35.871 16.2807 35.5413 16.3764 35.2057 16.3706H33.6833V14.1201H35.2226C35.5653 14.0987 35.9051 14.1956 36.1868 14.395C36.3079 14.4962 36.4034 14.6255 36.4652 14.772C36.5271 14.9184 36.5534 15.0778 36.542 15.2367C36.5562 15.3985 36.5312 15.5613 36.4693 15.711C36.4074 15.8607 36.3104 15.9927 36.1868 16.0957" fill="#F0F0F0"/>
<path id="Vector_4" d="M69.9851 16.9911C70.4517 16.568 70.8212 16.0461 71.0677 15.4622C71.3205 14.8416 71.4471 14.1754 71.4399 13.5038C71.4435 12.877 71.3167 12.2564 71.0677 11.6829C70.8143 11.152 70.4507 10.6832 70.002 10.3085C69.5611 9.89029 69.0439 9.5635 68.4796 9.34652C67.8724 9.11484 67.2331 8.9815 66.5851 8.95141V5.51562L64.3015 6.32303V8.88269C63.6572 8.91192 63.0225 9.05131 62.4239 9.29499C61.865 9.53599 61.3546 9.87959 60.9184 10.3085C60.4874 10.7149 60.1422 11.2058 59.9034 11.7516C59.6555 12.3315 59.5288 12.9575 59.5313 13.5897C59.5286 14.2298 59.6433 14.8648 59.8696 15.4622C60.0771 16.0273 60.4065 16.538 60.8338 16.9568C61.2741 17.3801 61.7911 17.7127 62.3562 17.936C62.9864 18.1693 63.6482 18.3025 64.3184 18.3311V22.3338L66.602 21.4577V18.3826C67.2465 18.3554 67.8816 18.2159 68.4796 17.9703C69.0376 17.7428 69.5483 17.4107 69.9851 16.9911V16.9911ZM64.3015 16.596C63.9686 16.563 63.6431 16.476 63.3373 16.3383C63.0615 16.1982 62.8146 16.0058 62.6099 15.7714C62.3752 15.5049 62.1916 15.1961 62.0686 14.861C61.9248 14.4594 61.8559 14.0341 61.8656 13.6069C61.8456 12.8789 62.0793 12.1671 62.5254 11.597C62.747 11.333 63.0182 11.1165 63.3232 10.9602C63.6281 10.8039 63.9607 10.7108 64.3015 10.6865V16.596ZM67.4985 16.3727C67.2012 16.4974 66.888 16.5784 66.5682 16.6132V10.6865C66.9185 10.6999 67.2621 10.7879 67.5768 10.9447C67.8915 11.1015 68.1703 11.3238 68.3951 11.597C68.8288 12.1729 69.0556 12.8821 69.0378 13.6069C69.0476 14.0341 68.9787 14.4594 68.8349 14.861C68.7036 15.2009 68.5146 15.5149 68.2766 15.7886C68.0593 16.0353 67.7945 16.234 67.4985 16.3727" fill="#F0F0F0"/>
<path id="Vector_5" d="M84.0775 15.4622C84.3384 14.8441 84.4653 14.1762 84.4496 13.5038C84.451 12.8789 84.3302 12.26 84.0944 11.6829C83.8594 11.1593 83.5195 10.6912 83.0964 10.3085C82.6589 9.89419 82.148 9.56776 81.5909 9.34652C80.9773 9.11657 80.3327 8.98332 79.6794 8.95141V5.51562L77.4297 6.40893V8.88269C76.7799 8.91163 76.1395 9.051 75.5351 9.29499C74.9701 9.51828 74.453 9.85082 74.0127 10.2742C73.5716 10.6713 73.2246 11.1646 72.9978 11.7172C72.7418 12.2946 72.6148 12.9223 72.6256 13.5554C72.6187 14.207 72.7335 14.854 72.964 15.4622C73.1779 16.0281 73.513 16.5386 73.9451 16.9568C74.3773 17.3822 74.8893 17.7151 75.4505 17.936C76.0861 18.171 76.7538 18.3043 77.4297 18.3311V22.3338L79.6964 21.4577V18.3826C80.3409 18.3554 80.976 18.2159 81.574 17.9703C82.1319 17.7428 82.6426 17.4107 83.0795 16.9911C83.521 16.5641 83.8621 16.0415 84.0775 15.4622V15.4622ZM77.4297 16.5445C77.091 16.5136 76.7595 16.4266 76.4486 16.2868C76.1509 16.1501 75.8812 15.9578 75.6535 15.7199C75.4245 15.4491 75.2416 15.1413 75.1122 14.8094C74.9684 14.4079 74.8995 13.9826 74.9093 13.5554C74.8892 12.8274 75.1229 12.1156 75.569 11.5454C75.8009 11.2721 76.0859 11.0502 76.406 10.8935C76.7261 10.7369 77.0746 10.6488 77.4297 10.6349V16.5445ZM81.9461 14.8266C81.8206 15.1656 81.6374 15.4796 81.4048 15.7543C81.1778 15.9974 80.9082 16.1955 80.6098 16.3383C80.315 16.4706 80.0006 16.5519 79.6794 16.5788V10.6865C80.0297 10.6999 80.3734 10.7879 80.6881 10.9447C81.0028 11.1015 81.2815 11.3238 81.5063 11.597C81.9401 12.1729 82.1669 12.8821 82.1491 13.6069C82.1588 14.0341 82.09 14.4594 81.9461 14.861" fill="#F0F0F0"/>
<path id="Vector_6" d="M0.0234375 7.28253H3.54187V18.2083H6.04538V7.28253H9.42849V5.15234H0.0234375V7.28253Z" fill="#F0F0F0"/>
<path id="Vector_7" d="M48.9904 9.08669H46.2332L43.0023 12.9863V9.03516H40.6172V18.2087H43.0023V13.7422L46.1655 18.2087H49.0073L45.455 13.2955L48.9904 9.08669Z" fill="#F0F0F0"/>
<path id="Vector_8" d="M57.0271 10.1541C56.6368 9.7417 56.1638 9.41946 55.64 9.20924C55.0719 8.99352 54.4703 8.88297 53.8639 8.88284C53.2517 8.88091 52.6442 8.99149 52.0708 9.20924C51.5443 9.4237 51.0665 9.74523 50.6668 10.1541C50.2626 10.5787 49.9564 11.0892 49.7703 11.6486C49.5327 12.3201 49.4236 13.0314 49.4489 13.7445C49.4401 14.4101 49.543 15.0724 49.7534 15.7029C49.94 16.2633 50.2396 16.7782 50.633 17.2146C51.0203 17.6226 51.4869 17.9443 52.0031 18.1594C52.5789 18.3918 53.1936 18.5085 53.8131 18.503C54.4253 18.505 55.0328 18.3944 55.6062 18.1766C56.1327 17.9622 56.6105 17.6406 57.0101 17.2318C57.4107 16.7947 57.7213 16.2807 57.9236 15.72C58.1493 15.0753 58.2582 14.3943 58.245 13.7101C58.2569 13.0428 58.148 12.379 57.9236 11.7517C57.7377 11.1871 57.4316 10.6709 57.0271 10.24V10.1541ZM55.7076 14.8267C55.6302 15.1452 55.4985 15.4476 55.3186 15.72C55.1693 15.9698 54.9597 16.1767 54.7096 16.3213C54.4486 16.4595 54.1582 16.5303 53.8639 16.5275C53.5806 16.5204 53.3035 16.4413 53.0582 16.2972C52.8129 16.1531 52.6071 15.9487 52.4599 15.7029C52.071 15.0846 51.8873 14.3562 51.9355 13.6242C51.912 12.9264 52.082 12.236 52.426 11.6315C52.5839 11.3878 52.8003 11.1889 53.0549 11.0537C53.3094 10.9184 53.5936 10.8512 53.8808 10.8584C54.1792 10.8391 54.4773 10.9005 54.7447 11.0363C55.0121 11.1721 55.2393 11.3775 55.4032 11.6315C55.7696 12.2695 55.9238 13.0104 55.843 13.7445C55.8439 14.1096 55.7984 14.4734 55.7076 14.8267" fill="#F0F0F0"/>
</g>
<defs>
<clipPath id="clip0_649_1850">
<rect width="84.4763" height="23.9989" fill="white" transform="translate(0.0234375)"/>
</clipPath>
</defs>
</svg>
