<svg width="43" height="15" viewBox="0 0 43 15" fill="none" xmlns="http://www.w3.org/2000/svg">
<g id="payment_visa" clip-path="url(#clip0_649_1870)">
<path id="Vector" d="M16.781 1.01899L11.289 14.4471H7.68233L4.97733 3.7215C4.81339 3.04587 4.64945 2.79251 4.15763 2.53915C3.33794 2.11688 2.02642 1.69462 0.796875 1.3568L0.878845 0.934532H6.61673C7.43642 1.01899 8.09218 1.52571 8.25612 2.37024L9.64961 10.14L13.1743 1.01899H16.781ZM21.6172 1.01899L18.8302 14.4471H15.4695L18.2564 1.01899H21.6172V1.01899ZM30.7158 10.0555C30.7158 6.50847 25.9616 6.33957 25.9616 4.73495C25.9616 4.22822 26.4534 3.7215 27.3551 3.63705C27.8469 3.5526 29.1584 3.5526 30.7158 4.22822L31.2896 1.3568C30.4699 1.01899 29.4043 0.765625 28.0928 0.765625C24.732 0.765625 22.4369 2.62361 22.3549 5.24167C22.3549 7.1841 23.9943 8.282 25.3058 8.87318C26.6173 9.54881 27.0272 9.97107 27.0272 10.5622C27.0272 11.4912 25.9616 11.8291 24.9779 11.9135C23.2566 11.9135 22.2729 11.4068 21.5352 11.069L20.9614 14.0248C21.7811 14.3627 23.1746 14.7005 24.732 14.7005C28.4207 14.7005 30.7158 12.8425 30.7158 10.0555ZM39.5686 14.4471H42.6834L39.9784 1.01899H37.1095C36.4537 1.01899 35.8799 1.44125 35.634 2.03243L30.5519 14.5316H34.0766L34.8143 12.5047H39.1587L39.5686 14.4471ZM35.7979 9.71771L37.6013 4.65049L38.5849 9.71771H35.7979Z" fill="#F0F0F0"/>
</g>
<defs>
<clipPath id="clip0_649_1870">
<rect width="41.8046" height="13.9349" fill="white" transform="translate(0.875 0.765625)"/>
</clipPath>
</defs>
</svg>
