<svg width="24" height="24" viewBox="0 0 24 24" fill="none" xmlns="http://www.w3.org/2000/svg">
<g id="Icon=cash">
<g id="Vector">
<path fill-rule="evenodd" clip-rule="evenodd" d="M15.1783 3.04238C15.6729 2.9166 16.2441 3.07072 16.58 3.50591C17.7611 5.03606 19.6435 7.52171 20.7601 9.00125C21.0418 9.37452 21.0633 9.83364 20.8877 10.2091C20.7203 10.5672 20.3954 10.8166 20.0257 10.9209C17.3022 11.6893 12.9983 14.1496 12.0972 19.2802C11.9947 19.8636 11.5225 20.1825 11.1296 20.2888C11.0409 20.3128 10.9458 20.3292 10.8472 20.3361C10.7158 20.5567 10.5226 20.7241 10.3311 20.8275C9.95138 21.0325 9.4321 21.0824 8.969 20.8243C6.52002 19.4596 4.71926 18.4126 3.92728 17.9418C3.67019 17.7889 3.44094 17.5341 3.35833 17.186C2.95466 15.4849 2.77002 12.8674 3.47111 10.2509C4.17781 7.61346 5.79399 4.95557 8.99285 3.29206C9.45683 3.05078 10.0389 3.09721 10.4553 3.41234C10.654 3.56274 10.8811 3.73175 11.1237 3.91223C11.3484 4.07946 11.5863 4.25654 11.8272 4.43778C12.8075 3.84015 13.914 3.3639 15.1783 3.04238ZM13.1516 5.45193C13.8401 5.08624 14.6005 4.78413 15.4491 4.55968C16.5313 5.96387 18.1464 8.09444 19.2463 9.55048C16.4776 10.429 12.3723 12.8264 10.9176 17.5983C11.1664 13.6038 13.9604 11.002 16.011 9.8629C16.3581 9.67012 16.6144 9.33256 16.6682 8.92424C16.7238 8.50242 16.5498 8.08855 16.2017 7.81967C15.8228 7.52695 15.3784 7.1812 14.8997 6.80874C14.3468 6.37858 13.7482 5.9128 13.1516 5.45193ZM9.61257 4.70317C6.93085 6.13205 5.57082 8.36613 4.95952 10.6475C4.3555 12.9017 4.49165 15.1813 4.8241 16.6861C5.61542 17.1546 7.23811 18.0963 9.41704 19.3137C8.86584 13.8538 12.3116 10.3123 14.8812 8.74237C14.5896 8.51621 14.2733 8.2701 13.9416 8.01205C13.1153 7.36907 12.1936 6.65195 11.3215 5.98451C10.9355 5.68904 10.5703 5.41744 10.225 5.16063C10.0135 5.00329 9.80941 4.85149 9.61257 4.70317Z" fill="#552FEC"/>
<path fill-rule="evenodd" clip-rule="evenodd" d="M9.93855 6.17717C10.1495 6.20463 10.3231 6.29163 10.4556 6.37862C11.5325 7.08566 11.913 8.27013 11.5945 9.2592C11.436 9.75166 11.1011 10.1917 10.6054 10.4548C10.1056 10.72 9.50766 10.7712 8.88292 10.6055L8.14982 10.4111C8.07471 10.5902 8.01215 10.7545 7.96013 10.926L8.86147 11.253C9.26128 11.398 9.46748 11.8388 9.32205 12.2376C9.17661 12.6363 8.73461 12.8419 8.33481 12.6969L7.76917 12.4917C7.76941 12.7347 7.77813 13.0093 7.79688 13.323C7.8222 13.7466 7.49845 14.1104 7.07377 14.1356C6.64909 14.1608 6.2843 13.838 6.25898 13.4145C6.22465 12.8401 6.21959 12.3586 6.24244 11.9378L5.86873 11.8022C5.46892 11.6572 5.26272 11.2164 5.40815 10.8177C5.55359 10.419 5.99559 10.2133 6.39539 10.3584L6.51109 10.4003C6.63164 10.024 6.7812 9.68937 6.933 9.34967C6.95689 9.29619 6.98084 9.24259 7.00475 9.18869C7.56753 7.91948 8.25427 7.14071 8.85497 6.63872C8.88102 6.61695 8.90637 6.59483 8.93557 6.56918C8.93862 6.5665 8.94178 6.56372 8.94503 6.56086C8.97033 6.53862 9.00135 6.51134 9.03165 6.48577C9.09486 6.43243 9.20572 6.34189 9.34839 6.27359C9.51051 6.19598 9.71112 6.14757 9.93855 6.17717ZM8.83575 9.00317L9.27878 9.12064C9.58714 9.20241 9.7763 9.15431 9.88176 9.09835C9.99134 9.04021 10.0801 8.9372 10.1277 8.78947C10.207 8.54309 10.1641 8.15862 9.82471 7.83299C9.52613 8.08555 9.17585 8.45132 8.83575 9.00317Z" fill="#552FEC"/>
</g>
</g>
</svg>
