<svg width="24" height="24" viewBox="0 0 24 24" fill="none" xmlns="http://www.w3.org/2000/svg">
<g id="Icon=close">
<path id="Vector" fill-rule="evenodd" clip-rule="evenodd" d="M5.23782 5.23782C5.55491 4.92073 6.06901 4.92073 6.38611 5.23782L12 10.8517L17.6139 5.23782C17.931 4.92073 18.4451 4.92073 18.7622 5.23782C19.0793 5.55491 19.0793 6.06901 18.7622 6.38611L13.1483 12L18.7622 17.6139C19.0793 17.931 19.0793 18.4451 18.7622 18.7622C18.4451 19.0793 17.931 19.0793 17.6139 18.7622L12 13.1483L6.38611 18.7622C6.06901 19.0793 5.55491 19.0793 5.23782 18.7622C4.92073 18.4451 4.92073 17.931 5.23782 17.6139L10.8517 12L5.23782 6.38611C4.92073 6.06901 4.92073 5.55491 5.23782 5.23782Z" fill="#552FEC"/>
</g>
</svg>
