<svg width="24" height="24" viewBox="0 0 24 24" fill="none" xmlns="http://www.w3.org/2000/svg">
<g id="Icon=card">
<path id="Vector" fill-rule="evenodd" clip-rule="evenodd" d="M6.02266 6.5993C5.26809 6.5993 4.64095 7.20453 4.64095 7.96977V8.5432H19.359V7.96977C19.359 7.20453 18.7319 6.5993 17.9773 6.5993H6.02266ZM21 7.96977C21 6.33797 19.6552 5 17.9773 5H6.02266C4.34477 5 3 6.33797 3 7.96977V16.0302C3 17.662 4.34477 19 6.02266 19H17.9773C19.6552 19 21 17.662 21 16.0302V7.96977ZM19.359 10.1425H4.64095V16.0302C4.64095 16.7955 5.26809 17.4007 6.02266 17.4007H17.9773C18.7319 17.4007 19.359 16.7955 19.359 16.0302V10.1425ZM6.14597 13.4533C6.14597 13.0117 6.51331 12.6537 6.96645 12.6537H8.85403C9.30717 12.6537 9.67451 13.0117 9.67451 13.4533V14.2146C9.67451 14.6562 9.30717 15.0142 8.85403 15.0142H6.96645C6.51331 15.0142 6.14597 14.6562 6.14597 14.2146V13.4533Z" fill="#552FEC"/>
</g>
</svg>
