<svg width="24" height="24" viewBox="0 0 24 24" fill="none" xmlns="http://www.w3.org/2000/svg">
<g id="Icon=card_in_point">
<path id="Vector" fill-rule="evenodd" clip-rule="evenodd" d="M5.06998 5.67564C4.30359 5.67564 3.66664 6.30976 3.66664 7.11154V7.71251H19.2364V7.11154C19.2364 6.30976 18.5995 5.67564 17.8331 5.67564H5.06998ZM19.2364 9.38815H3.66664V15.5568C3.66664 16.3585 4.30359 16.9927 5.06998 16.9927H14.4738C14.2987 16.6813 14.1439 16.3737 14.0184 16.077C13.8196 15.6068 13.6665 15.1001 13.6665 14.6191C13.6665 12.3052 15.5325 10.4195 17.8332 10.4195C18.3255 10.4195 18.798 10.5058 19.2364 10.6642V9.38815ZM20.9031 11.7817V7.11154C20.9031 5.40183 19.5373 4 17.8331 4H5.06998C3.36582 4 2 5.40183 2 7.11154V15.5568C2 17.2665 3.36582 18.6683 5.06998 18.6683H15.5637C16.0514 19.34 16.587 20.0033 17.1072 20.6003L17.2062 20.714C17.3647 20.896 17.5937 21.0003 17.8343 21C18.0749 20.9997 18.3037 20.8948 18.4617 20.7124L18.5607 20.5981C18.9488 20.1499 19.7818 19.1571 20.5223 18.0663C20.8921 17.5216 21.2509 16.9351 21.5201 16.3676C21.7799 15.82 22 15.2018 22 14.6191M17.8312 18.8701C18.2184 18.3963 18.7024 17.7748 19.1458 17.1217C19.4897 16.6151 19.7973 16.1069 20.0159 15.6461C20.244 15.1655 20.3334 14.8218 20.3334 14.619C20.3334 13.2258 19.2087 12.0951 17.8332 12.0951C16.4579 12.0951 15.3331 13.2257 15.3331 14.6191C15.3331 14.7712 15.3889 15.0353 15.5522 15.4213C15.7099 15.7942 15.943 16.2236 16.2349 16.6877C16.6833 17.4006 17.2477 18.1595 17.8312 18.8701ZM22 14.6191C22.0001 13.5267 21.5842 12.5298 20.9031 11.7817L22 14.6191ZM5.19522 12.857C5.19522 12.3943 5.56831 12.0192 6.02854 12.0192H7.94568C8.40591 12.0192 8.779 12.3943 8.779 12.857V13.6546C8.779 14.1173 8.40591 14.4924 7.94568 14.4924H6.02854C5.56831 14.4924 5.19522 14.1173 5.19522 13.6546V12.857ZM16.5831 14.2875C16.5831 13.8247 16.9562 13.4496 17.4164 13.4496H18.2498C18.71 13.4496 19.0831 13.8247 19.0831 14.2875V15.1253C19.0831 15.588 18.71 15.9631 18.2498 15.9631H17.4164C16.9562 15.9631 16.5831 15.588 16.5831 15.1253V14.2875Z" fill="#552FEC"/>
</g>
</svg>
