<svg width="24" height="24" viewBox="0 0 24 24" fill="none" xmlns="http://www.w3.org/2000/svg">
<g id="Icon=document">
<g id="Vector">
<path fill-rule="evenodd" clip-rule="evenodd" d="M7.55052 10.1667C7.55052 9.70643 7.91669 9.33333 8.36839 9.33333H15.6384C16.0901 9.33333 16.4563 9.70643 16.4563 10.1667C16.4563 10.6269 16.0901 11 15.6384 11H8.36839C7.91669 11 7.55052 10.6269 7.55052 10.1667ZM7.55052 13.8333C7.55052 13.3731 7.91669 13 8.36839 13H12.9121C13.3638 13 13.73 13.3731 13.73 13.8333C13.73 14.2936 13.3638 14.6667 12.9121 14.6667H8.36839C7.91669 14.6667 7.55052 14.2936 7.55052 13.8333Z" fill="#552FEC"/>
<path fill-rule="evenodd" clip-rule="evenodd" d="M9.67113 2H14.3289C15.3294 1.99999 16.1302 1.99999 16.7773 2.05386C17.4416 2.10916 18.0157 2.22536 18.5439 2.49955C19.3903 2.93897 20.0784 3.64013 20.5097 4.50254C20.7788 5.04068 20.8929 5.62563 20.9471 6.30248C21 6.96184 21 7.77773 21 8.7972V15.2028C21 16.2223 21 17.0382 20.9471 17.6975C20.8929 18.3744 20.7788 18.9593 20.5097 19.4975C20.0784 20.3599 19.3903 21.061 18.5439 21.5004C18.0157 21.7746 17.4416 21.8908 16.7773 21.9461C16.1302 22 15.3295 22 14.3289 22H9.6711C8.67055 22 7.86979 22 7.22266 21.9461C6.55837 21.8908 5.98428 21.7746 5.45612 21.5004C4.60971 21.061 3.92155 20.3599 3.49029 19.4975C3.22118 18.9593 3.10713 18.3744 3.05286 17.6975C2.99999 17.0382 2.99999 16.2223 3 15.2028V8.79723C2.99999 7.77774 2.99999 6.96184 3.05286 6.30248C3.10713 5.62563 3.22118 5.04068 3.49029 4.50254C3.92155 3.64013 4.60971 2.93897 5.45612 2.49955C5.98428 2.22536 6.55837 2.10916 7.22266 2.05386C7.86979 1.99999 8.67056 1.99999 9.67113 2ZM7.35587 3.71499C6.79273 3.76187 6.45786 3.85004 6.19873 3.98456C5.66011 4.2642 5.22219 4.71039 4.94775 5.25919C4.81572 5.52322 4.72919 5.86441 4.68318 6.4382C4.63638 7.02172 4.63575 7.76948 4.63575 8.83333V15.1667C4.63575 16.2305 4.63638 16.9783 4.68318 17.5618C4.72919 18.1356 4.81572 18.4768 4.94775 18.7408C5.22219 19.2896 5.66011 19.7358 6.19873 20.0154C6.45786 20.15 6.79273 20.2381 7.35587 20.285C7.92856 20.3327 8.66245 20.3333 9.70656 20.3333H14.2934C15.3375 20.3333 16.0714 20.3327 16.6441 20.285C17.2073 20.2381 17.5421 20.15 17.8013 20.0154C18.3399 19.7358 18.7778 19.2896 19.0523 18.7408C19.1843 18.4768 19.2708 18.1356 19.3168 17.5618C19.3636 16.9783 19.3643 16.2305 19.3643 15.1667V8.83333C19.3643 7.76948 19.3636 7.02172 19.3168 6.4382C19.2708 5.86441 19.1843 5.52322 19.0523 5.25919C18.7778 4.71039 18.3399 4.2642 17.8013 3.98456C17.5421 3.85004 17.2073 3.76187 16.6441 3.71499C16.0714 3.66732 15.3375 3.66667 14.2934 3.66667H9.70657C8.66245 3.66667 7.92856 3.66732 7.35587 3.71499Z" fill="#552FEC"/>
</g>
</g>
</svg>
