<svg width="24" height="24" viewBox="0 0 24 24" fill="none" xmlns="http://www.w3.org/2000/svg">
<g id="Icon=like">
<path id="Vector" fill-rule="evenodd" clip-rule="evenodd" d="M3.47448 6.93293C3.96775 5.71579 5.47206 4 7.87685 4C9.11578 4 10.1512 4.56712 10.923 5.17638C11.3395 5.50514 11.7018 5.8644 12 6.18974C12.2982 5.8644 12.6605 5.50514 13.077 5.17638C13.8488 4.56712 14.8842 4 16.1231 4C18.5279 4 20.0323 5.71579 20.5255 6.93293C20.5315 6.94762 20.537 6.96249 20.542 6.9775C20.5623 7.03758 20.5882 7.10697 20.6173 7.1851C20.7907 7.64981 21.0795 8.42387 20.9795 9.38972C20.8603 10.5414 20.2247 11.8694 18.651 13.4821C16.2262 15.967 13.5798 18.7121 12.5996 19.7443C12.4448 19.9074 12.2275 20 12 20C11.7725 20 11.5552 19.9074 11.4004 19.7443C10.4202 18.7121 7.77378 15.967 5.349 13.4821C3.77535 11.8694 3.1397 10.5414 3.02051 9.38972C2.92055 8.42387 3.20933 7.64981 3.3827 7.1851C3.41185 7.10697 3.43774 7.03758 3.45796 6.9775C3.46302 6.96249 3.46853 6.94762 3.47448 6.93293ZM12.6548 7.91514L12.6374 7.93629C12.4821 8.12496 12.2477 8.23468 12 8.23468C11.7523 8.23469 11.5179 8.12498 11.3626 7.93632L11.3452 7.91516L11.3452 7.91514C11.0051 7.50209 10.5163 6.91171 9.895 6.42126C9.27147 5.92905 8.59208 5.6 7.87685 5.6C6.35192 5.6 5.33972 6.69669 5.004 7.50257C4.97042 7.60125 4.93616 7.69586 4.90272 7.78822C4.7358 8.24923 4.58921 8.6541 4.64868 9.22864C4.71863 9.90451 5.10779 10.917 6.53305 12.3776C8.56889 14.4639 10.7628 16.7356 12 18.0274C13.2372 16.7356 15.4311 14.4639 17.467 12.3776C18.8922 10.917 19.2814 9.90451 19.3513 9.22864C19.4108 8.6541 19.2642 8.24923 19.0973 7.78822C19.0638 7.69586 19.0296 7.60124 18.996 7.50256C18.6603 6.69668 17.6481 5.6 16.1231 5.6C15.4079 5.6 14.7285 5.92905 14.105 6.42126C13.4837 6.91171 12.9949 7.50209 12.6548 7.91514Z" fill="#552FEC"/>
</g>
</svg>
