<svg width="24" height="24" viewBox="0 0 24 24" fill="none" xmlns="http://www.w3.org/2000/svg">
<g id="Icon=list">
<path id="Vector" fill-rule="evenodd" clip-rule="evenodd" d="M2 6.06061C2 5.47485 2.46637 5 3.04167 5H20.9583C21.5336 5 22 5.47485 22 6.06061C22 6.64636 21.5336 7.12121 20.9583 7.12121H3.04167C2.46637 7.12121 2 6.64636 2 6.06061ZM2 12C2 11.4142 2.46637 10.9394 3.04167 10.9394H11.7917C12.367 10.9394 12.8333 11.4142 12.8333 12C12.8333 12.5858 12.367 13.0606 11.7917 13.0606H3.04167C2.46637 13.0606 2 12.5858 2 12ZM2 17.9394C2 17.3536 2.46637 16.8788 3.04167 16.8788H15.125C15.7003 16.8788 16.1667 17.3536 16.1667 17.9394C16.1667 18.5252 15.7003 19 15.125 19H3.04167C2.46637 19 2 18.5252 2 17.9394Z" fill="#552FEC"/>
</g>
</svg>
