<svg width="24" height="24" viewBox="0 0 24 24" fill="none" xmlns="http://www.w3.org/2000/svg">
<g id="Icon=point">
<g id="Vector">
<path fill-rule="evenodd" clip-rule="evenodd" d="M12 3.00591C10.1852 2.90919 7.00775 3.98477 5.50751 7.37384C4.27283 10.163 5.48747 13.1985 7.04927 15.3862C8.77709 17.8065 10.1854 19.3723 10.9295 20.1995C11.1278 20.42 11.2789 20.588 11.3763 20.7057C11.5306 20.8922 11.759 21 12 21C12.2409 21 12.4694 20.8922 12.6236 20.7057C12.7212 20.5878 12.8732 20.4192 13.0731 20.1975C13.8176 19.3717 15.2257 17.8099 16.9507 15.3936C18.5125 13.2059 19.7272 10.1704 18.4925 7.38122C16.9929 3.99362 13.8165 2.90923 12 3.00591ZM11.946 4.64124C10.7174 4.55872 8.189 5.33238 6.9904 8.04004C6.11806 10.0107 6.90872 12.3878 8.36743 14.4312C9.96402 16.6676 11.2255 18.089 12.0005 18.9525C12.7757 18.0909 14.0359 16.6751 15.6326 14.4385C17.0913 12.3952 17.8819 10.0181 17.0096 8.04743C15.8103 5.33827 13.2808 4.55885 12.054 4.64124C12.018 4.64365 11.9819 4.64365 11.946 4.64124Z" fill="#552FEC"/>
<path fill-rule="evenodd" clip-rule="evenodd" d="M12 8.31842C11.0846 8.31842 10.3384 9.06886 10.3384 9.9999C10.3384 10.931 11.0847 11.6816 12 11.6816C12.9154 11.6816 13.6616 10.9311 13.6616 10.0001C13.6616 9.06898 12.9153 8.31842 12 8.31842ZM8.71476 9.9999C8.71476 8.17018 10.1833 6.68271 12 6.68271C13.8168 6.68271 15.2852 8.17047 15.2852 10.0001C15.2852 11.8298 13.8167 13.3173 12 13.3173C10.1832 13.3173 8.71476 11.8295 8.71476 9.9999Z" fill="#552FEC"/>
</g>
</g>
</svg>
