<svg width="24" height="24" viewBox="0 0 24 24" fill="none" xmlns="http://www.w3.org/2000/svg">
<g id="Icon=market">
<path id="Vector" fill-rule="evenodd" clip-rule="evenodd" d="M5.28003 4.30078C5.43983 4.11031 5.67778 4 5.92885 4H18.0711C18.3222 4 18.5602 4.11031 18.72 4.30078L21.7243 7.88177C21.7325 7.89164 21.7406 7.90169 21.7484 7.91192C21.8987 8.10899 21.9506 8.32763 21.9731 8.46116C21.9989 8.61512 22.0042 8.77642 21.9972 8.93199C21.9831 9.24449 21.9162 9.60347 21.7933 9.96467C21.552 10.6737 21.0458 11.5244 20.1192 11.9948C20.067 12.0213 20.0254 12.0442 19.9741 12.0726V18.3454H21.0754C21.54 18.3454 21.9166 18.7158 21.9166 19.1727C21.9166 19.6296 21.54 20 21.0754 20H2.92456C2.45999 20 2.08338 19.6296 2.08338 19.1727C2.08338 18.7158 2.45999 18.3454 2.92456 18.3454H4.02594V12.0726C3.97458 12.0442 3.93299 12.0213 3.88075 11.9948C2.95416 11.5244 2.44796 10.6737 2.2067 9.96467C2.08378 9.60347 2.01693 9.24449 2.00284 8.93199C1.99582 8.77642 2.00108 8.61512 2.02693 8.46116C2.04936 8.32763 2.10133 8.10899 2.25161 7.91192C2.25941 7.90169 2.26746 7.89164 2.27573 7.88177L5.28003 4.30078ZM5.70831 12.6086V18.3454H8.68056V15.4116C8.68056 14.4978 9.43378 13.757 10.3629 13.757H13.6371C14.5662 13.757 15.3194 14.4978 15.3194 15.4116V18.3454H18.2917V12.6086C17.736 12.6722 17.1676 12.6337 16.6112 12.463C15.9745 12.2675 15.3909 11.9102 14.8844 11.391C14.0804 12.2054 13.0999 12.7482 11.9884 12.7482C10.8748 12.7482 9.90859 12.2036 9.11392 11.3927C8.60783 11.911 8.02484 12.2678 7.3888 12.463C6.83237 12.6337 6.26396 12.6722 5.70831 12.6086ZM13.6371 18.3454V15.4116H10.3629V18.3454H13.6371ZM6.32534 5.65464L3.68237 8.80494C3.68231 8.82045 3.68263 8.83835 3.68355 8.85868C3.69017 9.00564 3.72489 9.2127 3.80208 9.43951C3.96101 9.90656 4.24913 10.3198 4.65237 10.5245C4.72665 10.5622 4.81728 10.6119 4.88849 10.651C4.91954 10.6681 4.94691 10.6831 4.96761 10.6942C5.05833 10.7429 5.11611 10.77 5.15875 10.7855C5.77634 11.01 6.36755 11.0431 6.88765 10.8835C7.39854 10.7267 7.92291 10.3592 8.37562 9.63324C8.52361 9.39593 8.78302 9.24773 9.06593 9.23888C9.34883 9.23003 9.6173 9.36171 9.78032 9.58929C10.542 10.6525 11.3132 11.0936 11.9884 11.0936C12.6691 11.0936 13.4628 10.6458 14.2197 9.58929C14.3827 9.36171 14.6512 9.23003 14.9341 9.23888C15.217 9.24773 15.4764 9.39593 15.6244 9.63324C16.0771 10.3592 16.6015 10.7267 17.1124 10.8835C17.6324 11.0431 18.2237 11.01 18.8412 10.7855C18.8839 10.77 18.9417 10.7429 19.0324 10.6942C19.0531 10.6831 19.0805 10.6681 19.1115 10.651C19.1827 10.6119 19.2733 10.5622 19.3476 10.5245C19.7509 10.3198 20.039 9.90656 20.1979 9.43951C20.2751 9.2127 20.3098 9.00564 20.3165 8.85868C20.3174 8.83835 20.3177 8.82045 20.3176 8.80494L17.6747 5.65464H6.32534ZM20.3132 8.73083L20.3135 8.73286C20.311 8.7225 20.3115 8.7209 20.3132 8.73083ZM3.6868 8.73083C3.68847 8.72088 3.68905 8.72251 3.68647 8.73291L3.6868 8.73083Z" fill="#552FEC"/>
</g>
</svg>
