<svg width="24" height="24" viewBox="0 0 24 24" fill="none" xmlns="http://www.w3.org/2000/svg">
<g id="Icon=burger">
<g id="Vector">
<path fill-rule="evenodd" clip-rule="evenodd" d="M4 7.05771C4 6.47355 4.4765 6 5.0643 6L18.9357 6C19.5235 6 20 6.47355 20 7.05771C20 7.64186 19.5235 8.11541 18.9357 8.11541L5.0643 8.11541C4.4765 8.11541 4 7.64186 4 7.05771Z" fill="#552FEC"/>
<path fill-rule="evenodd" clip-rule="evenodd" d="M4 11.786C4 11.2018 4.4765 10.7283 5.0643 10.7283L18.9357 10.7283C19.5235 10.7283 20 11.2018 20 11.786C20 12.3701 19.5235 12.8437 18.9357 12.8437L5.0643 12.8437C4.4765 12.8437 4 12.3701 4 11.786Z" fill="#552FEC"/>
<path fill-rule="evenodd" clip-rule="evenodd" d="M4 16.9423C4 16.3581 4.4765 15.8846 5.0643 15.8846L18.9357 15.8846C19.5235 15.8846 20 16.3581 20 16.9423C20 17.5264 19.5235 18 18.9357 18L5.0643 18C4.4765 18 4 17.5264 4 16.9423Z" fill="#552FEC"/>
</g>
</g>
</svg>
