<svg width="24" height="24" viewBox="0 0 24 24" fill="none" xmlns="http://www.w3.org/2000/svg">
<g id="Icon=bell">
<path id="Vector" fill-rule="evenodd" clip-rule="evenodd" d="M13.902 5.11343C12.6688 4.68741 11.3312 4.68744 10.098 5.1135C8.65139 5.6133 7.47885 6.70729 6.86733 8.12773C6.56764 8.82387 6.41294 9.57529 6.41294 10.3349V13.9449C6.41294 14.0611 6.3907 14.1761 6.34745 14.2837L5.2003 17.1363L18.7997 17.1362L17.6525 14.2836C17.6093 14.176 17.5871 14.061 17.5871 13.9449V10.3348C17.5871 9.57521 17.4324 8.8238 17.1327 8.12766C16.5212 6.70722 15.3486 5.61324 13.902 5.11343ZM9.52761 3.4154C11.1306 2.86157 12.8694 2.86152 14.4724 3.41532C16.3895 4.07767 17.9434 5.52745 18.7538 7.40984C19.1509 8.33238 19.3559 9.32818 19.3559 10.3348V13.769L20.9345 17.6945C21.0457 17.971 21.0139 18.2856 20.8496 18.5335C20.6853 18.7814 20.4101 18.9301 20.1156 18.9301H15.1033C14.0116 21.6899 9.98842 21.69 8.89672 18.9302H3.88444C3.58991 18.9302 3.3147 18.7815 3.1504 18.5336C2.9861 18.2857 2.95427 17.9711 3.06549 17.6945L4.64408 13.7691V10.3349C4.64408 9.32825 4.84908 8.33246 5.24624 7.40991C6.05663 5.52752 7.61051 4.07775 9.52761 3.4154ZM12.9125 18.9302C11.9998 19.6237 11.9998 19.6237 11.0875 18.9302L12.9125 18.9302Z" fill="#552FEC"/>
</g>
</svg>
