<svg width="24" height="24" viewBox="0 0 24 24" fill="none" xmlns="http://www.w3.org/2000/svg">
<g id="Icon=percent">
<path id="Vector" fill-rule="evenodd" clip-rule="evenodd" d="M7.25984 6.22595C5.87822 6.22595 4.75819 7.32543 4.75819 8.68172C4.75819 10.038 5.87822 11.1375 7.25984 11.1375C8.64147 11.1375 9.7615 10.038 9.7615 8.68172C9.7615 7.32543 8.64147 6.22595 7.25984 6.22595ZM3 8.68172C3 6.37222 4.9072 4.5 7.25984 4.5C9.61249 4.5 11.5197 6.37222 11.5197 8.68172C11.5197 10.9912 9.61249 12.8634 7.25984 12.8634C4.9072 12.8634 3 10.9912 3 8.68172ZM16.7697 5.27434C17.167 5.54836 17.2627 6.08662 16.9836 6.47657L8.0734 18.9241C7.79426 19.314 7.24594 19.408 6.8487 19.134C6.45146 18.86 6.35571 18.3217 6.63485 17.9318L15.545 5.48426C15.8242 5.0943 16.3725 5.00031 16.7697 5.27434ZM16.7402 12.8625C15.3585 12.8625 14.2385 13.962 14.2385 15.3183C14.2385 16.6746 15.3585 17.7741 16.7402 17.7741C18.1218 17.7741 19.2418 16.6746 19.2418 15.3183C19.2418 13.962 18.1218 12.8625 16.7402 12.8625ZM12.4803 15.3183C12.4803 13.0088 14.3875 11.1366 16.7402 11.1366C19.0928 11.1366 21 13.0088 21 15.3183C21 17.6278 19.0928 19.5 16.7402 19.5C14.3875 19.5 12.4803 17.6278 12.4803 15.3183Z" fill="#552FEC"/>
</g>
</svg>
