<svg width="24" height="24" viewBox="0 0 24 24" fill="none" xmlns="http://www.w3.org/2000/svg">
<g id="Icon=profile">
<path id="Vector" fill-rule="evenodd" clip-rule="evenodd" d="M11.939 4.32557C10.1232 4.32557 8.6973 5.77774 8.6973 7.51179C8.6973 9.24584 10.1232 10.698 11.939 10.698C13.7549 10.698 15.1808 9.24584 15.1808 7.51179C15.1808 5.77774 13.7549 4.32557 11.939 4.32557ZM6.91003 7.51179C6.91003 4.7182 9.18708 2.5 11.939 2.5C14.691 2.5 16.968 4.7182 16.968 7.51179C16.968 10.3054 14.691 12.5236 11.939 12.5236C9.18708 12.5236 6.91003 10.3054 6.91003 7.51179ZM7.39337 16.6787C6.15537 17.4525 5.28727 18.6631 5.28727 20.5872C5.28727 21.0913 4.88718 21.5 4.39363 21.5C3.90009 21.5 3.5 21.0913 3.5 20.5872C3.5 17.9585 4.75205 16.1894 6.46052 15.1215C8.12053 14.084 10.1865 13.7148 11.9393 13.7148C13.6917 13.7148 15.7844 14.0838 17.4718 15.1172C19.2063 16.1794 20.5 17.9468 20.5 20.5872C20.5 21.0913 20.0999 21.5 19.6064 21.5C19.1128 21.5 18.7127 21.0913 18.7127 20.5872C18.7127 18.6749 17.8255 17.4624 16.5528 16.683C15.233 15.8747 13.4921 15.5404 11.9393 15.5404C10.3867 15.5404 8.67984 15.8746 7.39337 16.6787Z" fill="#552FEC"/>
</g>
</svg>
