<svg width="24" height="24" viewBox="0 0 24 24" fill="none" xmlns="http://www.w3.org/2000/svg">
<g id="Icon=phone">
<path id="Vector" fill-rule="evenodd" clip-rule="evenodd" d="M5.96551 3.72262C6.28131 3.42579 6.77679 3.42579 7.09259 3.72262L11.2478 7.62827C11.4104 7.78111 11.5024 7.99328 11.5024 8.21519C11.5024 8.43709 11.4104 8.64927 11.2478 8.80211L9.46432 10.4785C9.57391 11.0042 9.94318 11.9815 10.951 12.9288C11.9931 13.9083 13.082 14.2571 13.6532 14.351L15.4631 12.6498C15.7789 12.353 16.2744 12.353 16.5901 12.6498L20.7453 16.5555C20.9079 16.7083 21 16.9205 21 17.1424C21 17.3643 20.9079 17.5765 20.7453 17.7293L18.0741 20.2401C17.9414 20.3648 17.7702 20.4419 17.588 20.4591C15.4812 20.6571 10.4169 20.2395 6.85591 16.8924C3.28451 13.5355 2.8303 8.74562 3.04415 6.73557C3.06452 6.54407 3.15322 6.36602 3.29432 6.2334L5.96551 3.72262ZM4.64819 7.19406C4.54066 9.05271 5.06741 12.9781 7.98298 15.7185C10.9269 18.4856 15.1664 18.9785 17.1584 18.8676L18.9938 17.1424L16.0266 14.3533L14.5126 15.7765C14.3605 15.9194 14.1588 15.9991 13.949 15.9991C13.1473 15.9991 11.4018 15.5857 9.8239 14.1026C8.24495 12.6185 7.78844 10.9589 7.78844 10.168C7.78844 9.94611 7.8805 9.73393 8.0431 9.58109L9.49628 8.21519L6.52905 5.42616L4.64819 7.19406ZM14.9936 6.00272C14.3323 5.74487 13.6245 5.62436 12.9142 5.64867C12.4626 5.66413 12.0838 5.31443 12.0682 4.8676C12.0525 4.42077 12.406 4.04601 12.8576 4.03055C13.7922 3.99856 14.7235 4.15713 15.5936 4.49639C16.4636 4.83565 17.2539 5.34835 17.9151 6.00263C18.5764 6.65691 19.0946 7.43877 19.4375 8.29962C19.7804 9.16047 19.9406 10.0819 19.9083 11.0066C19.8927 11.4535 19.5139 11.8032 19.0623 11.7877C18.6107 11.7723 18.2573 11.3975 18.2729 10.9507C18.2975 10.2478 18.1756 9.54753 17.915 8.89327C17.6544 8.239 17.2606 7.64477 16.758 7.1475C16.2554 6.65023 15.6548 6.26057 14.9936 6.00272Z" fill="#552FEC"/>
</g>
</svg>
