<svg width="24" height="24" viewBox="0 0 24 24" fill="none" xmlns="http://www.w3.org/2000/svg">
<g id="Icon=magnifier">
<path id="Vector" fill-rule="evenodd" clip-rule="evenodd" d="M10.878 5.11905C7.6975 5.11905 5.11905 7.69764 5.11905 10.8787C5.11905 14.0597 7.6975 16.6383 10.878 16.6383C14.0585 16.6383 16.637 14.0597 16.637 10.8787C16.637 7.69764 14.0585 5.11905 10.878 5.11905ZM3.5 10.8787C3.5 6.80362 6.80316 3.5 10.878 3.5C14.9528 3.5 18.256 6.80362 18.256 10.8787C18.256 12.6776 17.6123 14.3263 16.5426 15.6067L20.2461 19.1017C20.5712 19.4086 20.5861 19.9209 20.2792 20.2461C19.9724 20.5712 19.46 20.5861 19.1349 20.2792L15.3737 16.7298C14.129 17.6877 12.57 18.2573 10.878 18.2573C6.80316 18.2573 3.5 14.9537 3.5 10.8787Z" fill="#552FEC"/>
</g>
</svg>
