<svg width="24" height="24" viewBox="0 0 24 24" fill="none" xmlns="http://www.w3.org/2000/svg">
<g id="Icon=delivery">
<path id="Vector" fill-rule="evenodd" clip-rule="evenodd" d="M11.8657 6.26471C12.401 6.26471 12.8275 6.68274 12.8275 7.18945V15.9074L9.30712 15.912C8.92823 14.8502 7.88538 14.0907 6.66377 14.0907C5.47226 14.0907 4.45082 14.8133 4.04963 15.8341C3.90966 15.7497 3.81818 15.6002 3.81818 15.4332V7.18945C3.81818 6.68274 4.24464 6.26471 4.77996 6.26471H11.8657ZM4.01109 17.6521C2.87943 17.5094 2 16.5737 2 15.4332V7.18945C2 5.70009 3.24877 4.5 4.77996 4.5H11.8657C13.3969 4.5 14.6457 5.7001 14.6457 7.18945V7.26425H17.2584C18.0498 7.26425 18.7878 7.65612 19.2124 8.30543C19.2321 8.33565 19.25 8.36702 19.2658 8.39935L20.7203 11.3688C21.4608 11.5993 22 12.271 22 13.0692V15.8905C22 16.6872 21.4627 17.3584 20.7235 17.59C20.3722 18.6979 19.3056 19.5 18.0503 19.5C16.8275 19.5 15.7838 18.739 15.4058 17.6756L13.7378 17.6709L9.30783 17.6767C8.92952 18.7395 7.88614 19.5 6.66377 19.5C5.43198 19.5 4.38195 18.7277 4.01109 17.6521ZM5.69111 16.7011C5.69403 16.7299 5.69552 16.759 5.69552 16.7885C5.69552 16.8203 5.69379 16.8517 5.69042 16.8826C5.73609 17.3576 6.1508 17.7353 6.66377 17.7353C7.2078 17.7353 7.64131 17.3104 7.64131 16.7953C7.64131 16.2802 7.2078 15.8554 6.66377 15.8554C6.15331 15.8554 5.74014 16.2294 5.69111 16.7011ZM14.6457 15.9087V13.0481H20.1555C20.1614 13.0481 20.1647 13.0491 20.1669 13.0499C20.1697 13.0511 20.1728 13.053 20.1757 13.0558C20.1785 13.0585 20.18 13.0611 20.1807 13.0627C20.1812 13.0637 20.1818 13.0653 20.1818 13.0692V15.0451C19.6683 14.4606 18.9028 14.0907 18.0503 14.0907C16.8291 14.0907 15.7865 14.8497 15.4073 15.9109L14.6457 15.9087ZM14.6457 11.2833V9.02895H17.2584C17.4158 9.02895 17.5615 9.1005 17.6537 9.21818L18.6653 11.2833H14.6457ZM18.0503 15.8554C18.5943 15.8554 19.0278 16.2802 19.0278 16.7953C19.0278 17.3104 18.5943 17.7353 18.0503 17.7353C17.5062 17.7353 17.0727 17.3104 17.0727 16.7953C17.0727 16.2802 17.5062 15.8554 18.0503 15.8554Z" fill="#552FEC"/>
</g>
</svg>
