<svg width="24" height="24" viewBox="0 0 24 24" fill="none" xmlns="http://www.w3.org/2000/svg">
<g id="Icon=cart">
<path id="Vector" fill-rule="evenodd" clip-rule="evenodd" d="M3 5.76679C3 5.3433 3.34036 5 3.76022 5H6.91083C7.24333 5 7.53724 5.21794 7.63644 5.53803L8.88203 9.55743H20.2398C20.4747 9.55743 20.6964 9.66696 20.8404 9.85415C20.9844 10.0413 21.0345 10.2852 20.9762 10.5147L19.2586 17.271C18.9999 18.2885 18.0908 19 17.0494 19H10.9633C9.85416 19 8.90584 18.1952 8.7162 17.093L7.58267 10.5049L6.35196 6.53358H3.76022C3.34036 6.53358 3 6.19028 3 5.76679ZM9.22668 11.091L10.2143 16.8307C10.2775 17.1982 10.5936 17.4664 10.9633 17.4664H17.0494C17.3965 17.4664 17.6996 17.2292 17.7858 16.8901L19.26 11.091H9.22668Z" fill="#552FEC"/>
</g>
</svg>
