<svg width="24" height="24" viewBox="0 0 24 24" fill="none" xmlns="http://www.w3.org/2000/svg">
<g id="Icon=filter">
<path id="Vector" fill-rule="evenodd" clip-rule="evenodd" d="M11.5752 7.73403C11.9442 6.45061 13.1405 5.5 14.5763 5.5C16.0103 5.5 17.2054 6.44817 17.576 7.72908L19.1111 7.72908C19.602 7.72908 20 8.1171 20 8.59575C20 9.07439 19.602 9.46241 19.1111 9.46241L17.5615 9.46241C17.1749 10.7186 15.9921 11.6428 14.5763 11.6428C13.1581 11.6428 11.9737 10.7154 11.5892 9.4559C11.5533 9.4602 11.5168 9.46241 11.4797 9.46241H4.88921C4.39829 9.46241 4.00032 9.07439 4.00032 8.59575C4.00032 8.1171 4.39829 7.72908 4.88921 7.72908H11.4797C11.512 7.72908 11.5438 7.73076 11.5752 7.73403ZM14.5763 7.23333C13.8474 7.23333 13.2354 7.82094 13.2354 8.57138C13.2354 9.32183 13.8474 9.90944 14.5763 9.90944C15.3053 9.90944 15.9173 9.32183 15.9173 8.57138C15.9173 7.82094 15.3053 7.23333 14.5763 7.23333ZM9.42367 14.0906C8.69474 14.0906 8.08269 14.6782 8.08269 15.4286C8.08269 16.1791 8.69474 16.7667 9.42367 16.7667C10.1526 16.7667 10.7646 16.1791 10.7646 15.4286C10.7646 14.6782 10.1526 14.0906 9.42367 14.0906ZM6.42396 14.5863C6.79464 13.3054 7.98967 12.3572 9.42367 12.3572C10.8595 12.3572 12.0558 13.3078 12.4248 14.5913C12.4562 14.588 12.488 14.5863 12.5203 14.5863H19.1108C19.6017 14.5863 19.9997 14.9743 19.9997 15.453C19.9997 15.9316 19.6017 16.3196 19.1108 16.3196H12.5203C12.4832 16.3196 12.4467 16.3174 12.4108 16.3131C12.0263 17.5726 10.8419 18.5 9.42367 18.5C8.00791 18.5 6.82509 17.5758 6.43851 16.3196L4.88889 16.3196C4.39797 16.3196 4 15.9316 4 15.453C4 14.9743 4.39797 14.5863 4.88889 14.5863L6.42396 14.5863Z" fill="#552FEC"/>
</g>
</svg>
