<svg width="24" height="24" viewBox="0 0 24 24" fill="none" xmlns="http://www.w3.org/2000/svg">
<path d="M20.6022 7.71764C20.7281 7.30362 20.6022 7 20.0071 7H18.0355C17.5338 7 17.3046 7.26266 17.1787 7.55114C17.1787 7.55114 16.1763 9.97207 14.7558 11.5418C14.2973 11.9986 14.0878 12.1428 13.8379 12.1428C13.7129 12.1428 13.5313 11.9986 13.5313 11.5845V7.71764C13.5313 7.22081 13.3866 7 12.9685 7H9.87044C9.55757 7 9.36877 7.22972 9.36877 7.44875C9.36877 7.91887 10.079 8.02749 10.1518 9.35237V12.2265C10.1518 12.856 10.0377 12.9708 9.78593 12.9708C9.11794 12.9708 7.49248 10.541 6.52782 7.75949C6.33992 7.21903 6.15022 7.00089 5.64676 7.00089H3.67608C3.11238 7.00089 3 7.26355 3 7.55203C3 8.07023 3.66798 10.6345 6.11156 14.0259C7.74062 16.3418 10.0341 17.5972 12.1234 17.5972C13.3758 17.5972 13.5304 17.3185 13.5304 16.8377V15.0873C13.5304 14.5299 13.65 14.4177 14.0465 14.4177C14.3377 14.4177 14.8394 14.5637 16.0091 15.6794C17.345 17.0025 17.5662 17.5963 18.3169 17.5963H20.2876C20.8504 17.5963 21.1318 17.3177 20.9699 16.7674C20.7928 16.2198 20.1545 15.4229 19.3076 14.48C18.8473 13.9422 18.1596 13.3635 17.9501 13.0741C17.6579 12.7011 17.7424 12.5363 17.9501 12.2051C17.951 12.206 20.3523 8.85643 20.6022 7.71764Z" fill="black"/>
</svg>
