<svg width="24" height="24" viewBox="0 0 24 24" fill="none" xmlns="http://www.w3.org/2000/svg">
<path fill-rule="evenodd" clip-rule="evenodd" d="M18.4851 5.46434C16.8911 3.87604 14.7714 3.00094 12.5135 3C7.86038 3 4.07241 6.76905 4.07053 11.402C4.07053 12.8826 4.45892 14.3277 5.19714 15.6025L4 19.9556L8.4754 18.7866C9.70922 19.4558 11.0973 19.8086 12.5098 19.8096H12.5135C17.1657 19.8096 20.9537 16.0405 20.9556 11.4076C20.9556 9.16319 20.0791 7.05264 18.4851 5.46434ZM12.5135 18.3916H12.5107C11.2515 18.3907 10.0167 18.0547 8.93903 17.4173L8.68323 17.2657L6.02752 17.9592L6.73565 15.3825L6.5692 15.1186C5.86671 14.0067 5.49619 12.7217 5.49619 11.402C5.49807 7.5515 8.64562 4.41889 12.5163 4.41889C14.3906 4.41983 16.152 5.14706 17.477 6.46674C18.8011 7.78736 19.5308 9.54132 19.5299 11.4076C19.528 15.2581 16.3805 18.3916 12.5135 18.3916ZM16.3626 13.1606C16.151 13.0549 15.1147 12.5476 14.921 12.4774C14.7282 12.4072 14.5881 12.3725 14.447 12.5822C14.3059 12.7919 13.9016 13.2645 13.7784 13.4049C13.6552 13.5453 13.532 13.5621 13.3213 13.4573C13.1107 13.3525 12.4308 13.1307 11.6248 12.4156C10.9976 11.8587 10.5744 11.1717 10.4512 10.9611C10.328 10.7506 10.438 10.6373 10.5443 10.5325C10.6393 10.4389 10.755 10.2873 10.8603 10.1647C10.9656 10.042 11.0004 9.955 11.0709 9.81461C11.1415 9.67422 11.1067 9.55161 11.0531 9.44678C11.0004 9.34102 10.5782 8.30774 10.4023 7.8875C10.2321 7.48037 10.0581 7.53465 9.92834 7.52903C9.80608 7.52342 9.66502 7.52155 9.5249 7.52155C9.38384 7.52155 9.15532 7.57396 8.9616 7.78361C8.76787 7.9942 8.22338 8.50148 8.22338 9.53476C8.22338 10.568 8.97946 11.5667 9.08479 11.7071C9.19012 11.8475 10.5725 13.9674 12.6884 14.8771C13.1925 15.0933 13.5856 15.2225 13.8912 15.3198C14.3962 15.4799 14.8561 15.4565 15.22 15.4031C15.6253 15.3432 16.4679 14.8959 16.6438 14.4054C16.8197 13.915 16.8197 13.4947 16.767 13.4068C16.7143 13.3188 16.5723 13.2654 16.3626 13.1606Z" fill="black"/>
</svg>
